# xmcd
#
# Track frame offsets:
#	150
#	17288
#	36649
#	60915
#	78245
#	95227
#	116307
#	133226
#	149836
#	167322
#	185204
#	201283
#
# Disc length: 2897 seconds
#
# Revision: 1
# Processed by: cddbd v1.5.2PL0 Copyright (c) Steve Scherf et al.
# Submitted via: audiograbber 1.83.01
#
DISCID=a90b4f0c
DTITLE=Various Artist - CB60461
DYEAR=2011
DGENRE=Karaoke
TTITLE0=Kenny Chesney - Live A Little
TTITLE1=Burns and Poe - How Long Is Long Enough
TTITLE2=Jamey Johnson - Heartache
TTITLE3=Steve Holy - Love Don't Run
TTITLE4=Gretchen Wilson - I'd Love To Be Your Last
TTITLE5=Aaron Lewis - Country Boy
TTITLE6=Walker Hayes - Why Wait For Summer
TTITLE7=Joanna Smith - Georgia Mud
TTITLE8=Chris Young - Tomorrow
TTITLE9=Justin Moore - If Heaven Wasn't So Far Away
TTITLE10=Joey and Rory - That's Important To me
TTITLE11=Darius Rucker - Together, Anything's Possible
EXTD=CHARBUSTER APRIL 2011 RELEASE - COUNTRY
EXTT0=
EXTT1=
EXTT2=
EXTT3=
EXTT4=
EXTT5=
EXTT6=
EXTT7=
EXTT8=
EXTT9=
EXTT10=
EXTT11=
PLAYORDER=
